HIERARCHY
ROOT Hips
{
  OFFSET 0 89.5177 0.535
  CHANNELS 6 Xposition Yposition Zposition Zrotation Xrotation Yrotation
  JOINT Spine
  {
    OFFSET 12.0259 -0.162855 1.69034e-005
    CHANNELS 3 Zrotation Xrotation Yrotation
    JOINT Spine1
    {
      OFFSET 15.3169 -0.0121922 0
      CHANNELS 3 Zrotation Xrotation Yrotation
      JOINT Spine2
      {
        OFFSET 15.3176 -0.0121908 0
        CHANNELS 3 Zrotation Xrotation Yrotation
        JOINT Neck
        {
          OFFSET 19.9142 1.56338 0
          CHANNELS 3 Zrotation Xrotation Yrotation
          JOINT Head
          {
            OFFSET 6.92651 0 0
            CHANNELS 3 Zrotation Xrotation Yrotation
            End Site
            {
              OFFSET 20.7666 0 0
            }
          }
          JOINT LeftShoulder
          {
            OFFSET -6.20654 0.708824 7.28219
            CHANNELS 3 Zrotation Xrotation Yrotation
            JOINT LeftArm
            {
              OFFSET 14.108 0 -1.52588e-005
              CHANNELS 3 Zrotation Xrotation Yrotation
              JOINT LeftForeArm
              {
                OFFSET 28.5802 0 0
                CHANNELS 3 Zrotation Xrotation Yrotation
                JOINT LeftHand
                {
                  OFFSET 27.092 0 0
                  CHANNELS 3 Zrotation Xrotation Yrotation
                  End Site
                  {
                    OFFSET 9.55928 -0.186424 0.145352
                  }
                }
              }
            }
          }
          JOINT RightShoulder
          {
            OFFSET -6.20654 0.708866 -7.28218
            CHANNELS 3 Zrotation Xrotation Yrotation
            JOINT RightArm
            {
              OFFSET 14.108 0 1.52588e-005
              CHANNELS 3 Zrotation Xrotation Yrotation
              JOINT RightForeArm
              {
                OFFSET 28.5802 0 0
                CHANNELS 3 Zrotation Xrotation Yrotation
                JOINT RightHand
                {
                  OFFSET 27.092 0 0
                  CHANNELS 3 Zrotation Xrotation Yrotation
                  End Site
                  {
                    OFFSET 9.55929 -0.186417 -0.145354
                  }
                }
              }
            }
          }
        }
      }
    }
  }
  JOINT LeftUpLeg
  {
    OFFSET 0.005 -0.535 8.837
    CHANNELS 3 Zrotation Xrotation Yrotation
    JOINT LeftLeg
    {
      OFFSET 39.9035 0 0
      CHANNELS 3 Zrotation Xrotation Yrotation
      JOINT LeftFoot
      {
        OFFSET 39.6689 0 0
        CHANNELS 3 Zrotation Xrotation Yrotation
        JOINT LeftToe
        {
          OFFSET 10.1624 13.6296 0
          CHANNELS 3 Zrotation Xrotation Yrotation
          End Site
          {
            OFFSET 8.38147 0 0
          }
        }
      }
    }
  }
  JOINT RightUpLeg
  {
    OFFSET 0.005 -0.535 -8.837
    CHANNELS 3 Zrotation Xrotation Yrotation
    JOINT RightLeg
    {
      OFFSET 39.9035 0 0
      CHANNELS 3 Zrotation Xrotation Yrotation
      JOINT RightFoot
      {
        OFFSET 39.6689 0 0
        CHANNELS 3 Zrotation Xrotation Yrotation
        JOINT RightToe
        {
          OFFSET 10.1624 13.6296 0
          CHANNELS 3 Zrotation Xrotation Yrotation
          End Site
          {
            OFFSET 8.38147 0 0
          }
        }
      }
    }
  }
}
MOTION
Frames:	6
Frame Time:	0.0333333
80.0485 86.9705 -293.692 -114.907 74.4313 -157.081 -0.523699 0.739424 -0.406619 -1.04227 1.48298 -0.806386 -1.04227 1.48298 -0.806396 -8.30629e-012 -9.0191e-006 -5.27751e-005 7.64163 37.948 -9.98141 179.858 0.418224 -71.219 -10.8271 13.5943 60.3612 -15.7024 9.93923e-017 2.67738e-015 -41.1568 -14.9108 -19.5207 -178.306 4.55009 69.5593 2.77164 -4.22594 -68.3326 -19.5215 0 -3.97569e-016 -41.0132 43.639 37.6027 -24.3668 -4.84219 179.011 -31.9191 -1.59028e-015 -3.97569e-016 18.0417 5.15098 0.226072 90 9.93923e-017 -0 -22.3494 -10.9694 179.081 -30.9358 0 1.98785e-016 20.4822 -8.06078 -0.137917 90 0 1.59028e-015 
79.9586 87.0655 -292.436 -112.941 74.4814 -159.107 -0.620606 0.684264 -0.563563 -1.23458 1.37503 -1.11962 -1.23458 1.37503 -1.11963 -8.30788e-012 -9.0191e-006 -5.27751e-005 5.45546 31.3829 -7.57691 -179.973 -0.0786958 -71.0383 -10.6092 13.9912 59.1333 -15.073 -1.98785e-016 -3.10601e-016 -39.7481 -12.9324 -15.1515 -178.202 4.74533 69.2222 1.67685 -5.66718 -68.842 -21.7362 -1.59028e-015 -1.19271e-015 -42.6906 44.2413 39.5011 -22.8079 -5.03214 179.316 -31.5562 -1.59028e-015 -3.97569e-016 18.451 4.90014 0.127756 90 4.96962e-017 -0 -20.4184 -10.379 179.709 -29.9975 -1.59028e-015 -0 20.3155 -7.38444 -0.373698 90 3.97569e-016 -4.77083e-015 
79.8893 87.1583 -291.352 -111.354 74.5231 -160.421 -0.749086 0.70038 -0.790065 -1.48861 1.41143 -1.5709 -1.48861 1.41143 -1.57091 -8.30728e-012 -9.0191e-006 -5.27751e-005 3.1415 22.613 -5.40615 -179.906 -0.268073 -70.7303 -10.3508 14.2524 57.9058 -14.4227 -1.98785e-016 2.65874e-015 -38.7848 -11.8354 -13.0428 -178.08 5.01404 69.0231 0.450027 -7.00467 -69.3324 -23.0154 0 -1.19271e-015 -44.0578 44.8307 41.1495 -21.2086 -5.80921 179.248 -30.6145 0 -0 18.11 4.3591 -0.0445931 90 9.93923e-017 -0 -18.8968 -9.72223 179.916 -29.3138 -7.95139e-016 7.95139e-016 20.2745 -6.76231 -0.566904 90 -1.98785e-016 -3.18055e-015 
79.8509 87.1741 -290.505 -111.184 74.4972 -160.341 -0.907239 0.705199 -1.01113 -1.8021 1.42668 -2.01103 -1.8021 1.42668 -2.01104 -8.30748e-012 -9.0191e-006 -5.27751e-005 0.786699 14.0692 -4.01937 -179.862 -0.391277 -70.5144 -9.12964 13.9055 56.6827 -14.1507 1.19271e-015 3.72721e-016 -39.2277 -10.4713 -11.9817 -178.063 5.0726 69.0709 -0.254747 -7.36512 -69.8202 -22.4937 3.18055e-015 -7.95139e-016 -44.0552 44.9955 40.6193 -20.5089 -5.2173 179.331 -30.5475 0 7.95139e-016 19.106 4.91269 -0.219587 90 0 1.59028e-015 -18.3001 -9.92793 179.822 -29.3766 1.59028e-015 -7.95139e-016 21.0733 -6.94087 -0.640216 90 -1.98785e-016 -1.59028e-015 
79.8256 87.1853 -289.837 -111.714 74.6567 -159.601 -1.0338 0.702676 -1.16067 -2.0534 1.4265 -2.30856 -2.0534 1.4265 -2.30856 -8.30768e-012 -9.0191e-006 -5.27751e-005 -1.08045 7.62767 -3.81856 -179.897 -0.286137 -70.267 -7.85202 13.6638 55.8788 -14.5704 7.95139e-016 -7.45443e-016 -39.9659 -10.9428 -13.5047 -178.127 4.98332 69.3733 -0.750573 -7.02269 -70.1821 -21.267 -6.36111e-015 -7.95139e-016 -42.2628 44.5643 38.8918 -20.1196 -3.67176 179.578 -30.7404 3.18055e-015 -0 20.5942 5.87288 -0.396153 90 9.93923e-017 7.95139e-016 -17.969 -9.98667 179.745 -29.473 0 -1.98785e-016 21.8289 -7.17146 -0.666166 90 0 -3.18055e-015 
79.7959 87.2138 -289.308 -112.326 74.7584 -158.905 -1.14114 0.627099 -1.25589 -2.26848 1.2794 -2.49909 -2.26848 1.2794 -2.4991 -8.30887e-012 -9.0191e-006 -5.27751e-005 -2.39702 3.73994 -3.74389 -179.868 -0.367012 -70.1421 -7.48659 13.5767 55.3989 -15.1044 -1.59028e-015 -1.68967e-015 -41.022 -12.4279 -15.9159 -178.261 4.65922 69.5111 -1.26993 -6.65862 -70.2211 -20.2811 0 -0 -40.0922 44.5129 36.7414 -19.6682 -3.50824 179.661 -30.3953 3.18055e-015 2.38542e-015 20.726 5.81991 -0.476087 90 0 7.95139e-016 -17.56 -9.58611 179.875 -29.1636 1.59028e-015 -0 21.8899 -6.96688 -0.748551 90 -1.98785e-016 -0 
